<svg width="1104" height="842" viewBox="0 0 1104 842" fill="none" xmlns="http://www.w3.org/2000/svg">
        <path d="M-48.0142 -55.1857C-137.506 94.6015 -0.213168 170.746 79.6198 190.095C230.003 222.353 186.082 128.415 320.732 100.734C455.382 73.0522 336.065 23.4161 330.14 -57.3052C324.215 -138.027 488.421 -64.8779 473.938 -213.044C459.455 -361.21 193.072 -422.965 258.276 -223.344C323.48 -23.7229 63.8505 -242.42 -48.0142 -55.1857Z" stroke="#EEEEEE" stroke-width="2"/>
        <path d="M9.00536 -61.0743C-59.8709 54.3303 45.7283 112.957 107.138 127.845C222.816 152.661 189.05 80.3073 292.638 58.9544C396.227 37.6014 304.45 -0.608663 299.91 -62.7892C295.369 -124.97 421.673 -68.6571 410.564 -182.79C399.455 -296.923 194.547 -344.437 244.663 -190.678C294.779 -36.9184 95.1007 -205.33 9.00536 -61.0743Z" stroke="#EEEEEE" stroke-width="2"/>
        <path d="M-100.841 -49.5762C-209.491 132.4 -42.8728 224.869 54.0176 248.356C236.533 287.509 183.246 173.405 346.679 139.75C510.113 106.094 365.306 45.8235 358.132 -52.2332C350.958 -150.29 550.243 -61.4667 532.697 -241.451C515.151 -421.436 191.851 -496.396 270.946 -253.917C350.042 -11.437 34.9723 -277.047 -100.841 -49.5762Z" stroke="#EEEEEE" stroke-width="2"/>
        <path d="M-145.178 -45.0577C-269.836 163.528 -78.5596 269.584 32.661 296.538C242.169 341.477 180.971 210.652 368.555 172.118C556.138 133.583 389.907 64.4461 381.644 -47.9682C373.38 -160.383 602.151 -58.4968 581.958 -264.836C561.765 -471.176 190.65 -557.206 281.51 -279.204C372.369 -1.20178 10.6453 -305.79 -145.178 -45.0577Z" stroke="#EEEEEE" stroke-width="2"/>
        <path d="M-208.592 -38.219C-356.288 209.233 -129.834 334.947 1.8542 366.872C249.92 420.089 177.507 264.944 399.646 219.163C621.785 173.381 424.973 91.4458 415.234 -41.8844C405.495 -175.215 676.348 -54.4615 652.52 -299.191C628.693 -543.92 189.279 -645.809 296.756 -316.11C404.233 13.5886 -23.9715 -347.534 -208.592 -38.219Z" stroke="#EEEEEE" stroke-width="2"/>
        <path d="M-282.592 -30.1534C-457.205 262.842 -189.724 411.548 -34.1564 449.277C258.894 512.154 173.416 328.535 435.882 274.234C698.348 219.933 465.866 123.035 454.424 -34.791C442.981 -192.617 762.921 -49.8044 734.887 -339.494C706.853 -629.183 187.76 -749.585 314.58 -359.352C441.401 30.881 -64.326 -396.397 -282.592 -30.1534Z" stroke="#EEEEEE" stroke-width="2"/>
        </svg>